{
	"asset":{
		"generator":"Khronos glTF Blender I/O v4.0.44",
		"version":"2.0"
	},
	"extensionsUsed":[
		"KHR_materials_transmission",
		"KHR_materials_specular",
		"KHR_materials_ior"
	],
	"scene":0,
	"scenes":[
		{
			"name":"Scene",
			"nodes":[
				0
			]
		}
	],
	"nodes":[
		{
			"mesh":0,
			"name":"Pomegranate02_quarter",
			"scale":[
				0.009999999776482582,
				0.009999999776482582,
				0.009999999776482582
			],
			"translation":[
				0.002156210131943226,
				0.04113425686955452,
				0.1194973811507225
			]
		}
	],
	"materials":[
		{
			"doubleSided":true,
			"extensions":{
				"KHR_materials_transmission":{
					"transmissionFactor":1,
					"transmissionTexture":{
						"index":0
					}
				},
				"KHR_materials_specular":{
					"specularColorFactor":[
						2.0,
						2.0,
						2.0
					]
				},
				"KHR_materials_ior":{
					"ior":1.4500000476837158
				}
			},
			"name":"pomegranate02_quarter_mat",
			"normalTexture":{
				"index":1
			},
			"pbrMetallicRoughness":{
				"baseColorTexture":{
					"index":2
				},
				"metallicFactor":0,
				"metallicRoughnessTexture":{
					"index":3
				}
			}
		}
	],
	"meshes":[
		{
			"name":"Mesh.002",
			"primitives":[
				{
					"attributes":{
						"POSITION":0,
						"NORMAL":1,
						"TEXCOORD_0":2,
						"TEXCOORD_1":3
					},
					"indices":4,
					"material":0
				}
			]
		}
	],
	"textures":[
		{
			"sampler":0,
			"source":0
		},
		{
			"sampler":0,
			"source":1
		},
		{
			"sampler":0,
			"source":0
		},
		{
			"sampler":0,
			"source":2
		}
	],
	"images":[
		{
			"mimeType":"image/jpeg",
			"name":"pomegranate_quarter_Refract_mask",
			"uri":"pomegranate_quarter_Refract_mask.jpg"
		},
		{
			"mimeType":"image/jpeg",
			"name":"pomegranate_quarter_N",
			"uri":"pomegranate_quarter_N.jpg"
		},
		{
			"mimeType":"image/png",
			"name":"pomegranate_quarter_Roughness",
			"uri":"pomegranate_quarter_Roughness.png"
		}
	],
	"accessors":[
		{
			"bufferView":0,
			"componentType":5126,
			"count":46147,
			"max":[
				7.262242317199707,
				4.936765670776367,
				6.089160919189453
			],
			"min":[
				-7.693484306335449,
				-4.079309463500977,
				-5.345142364501953
			],
			"type":"VEC3"
		},
		{
			"bufferView":1,
			"componentType":5126,
			"count":46147,
			"type":"VEC3"
		},
		{
			"bufferView":2,
			"componentType":5126,
			"count":46147,
			"type":"VEC2"
		},
		{
			"bufferView":3,
			"componentType":5126,
			"count":46147,
			"type":"VEC2"
		},
		{
			"bufferView":4,
			"componentType":5123,
			"count":267258,
			"type":"SCALAR"
		}
	],
	"bufferViews":[
		{
			"buffer":0,
			"byteLength":553764,
			"byteOffset":0,
			"target":34962
		},
		{
			"buffer":0,
			"byteLength":553764,
			"byteOffset":553764,
			"target":34962
		},
		{
			"buffer":0,
			"byteLength":369176,
			"byteOffset":1107528,
			"target":34962
		},
		{
			"buffer":0,
			"byteLength":369176,
			"byteOffset":1476704,
			"target":34962
		},
		{
			"buffer":0,
			"byteLength":534516,
			"byteOffset":1845880,
			"target":34963
		}
	],
	"samplers":[
		{
			"magFilter":9729,
			"minFilter":9987
		}
	],
	"buffers":[
		{
			"byteLength":2380396,
			"uri":"uploads_files_4237737_Pomegranate02.bin"
		}
	]
}
